<?xml version="1.0" encoding="utf-8"?>
<!-- Generator: Adobe Illustrator 22.0.0, SVG Export Plug-In . SVG Version: 6.00 Build 0)  -->
<svg version="1.1" id="Layer_1" xmlns="http://www.w3.org/2000/svg" xmlns:xlink="http://www.w3.org/1999/xlink" x="0px" y="0px"
	 viewBox="0 0 66.4 55.5" style="enable-background:new 0 0 66.4 55.5;" xml:space="preserve">
<style type="text/css">
	.st0{fill:#E5AE35;}
	.st1{clip-path:url(#SVGID_2_);fill:#E5AE35;}
	.st2{clip-path:url(#SVGID_2_);fill:none;stroke:#E5AE35;stroke-miterlimit:10;}
</style>
<polyline class="st0" points="65.2,33.6 65.2,54.4 53.3,54.4 53.3,33.6 "/>
<g>
	<defs>
		<rect id="SVGID_1_" y="0" width="66.4" height="55.5"/>
	</defs>
	<clipPath id="SVGID_2_">
		<use xlink:href="#SVGID_1_"  style="overflow:visible;"/>
	</clipPath>
	<path class="st1" d="M32.5,33.1c0,14.7-6.4,22.4-19,22.4c-6.3,0-10.7-2.2-13.4-5.7l7.5-8.7c1.5,1.9,3.2,3,5.9,3
		c6.3,0,7.2-4.1,7.2-12V2.2h11.9V33.1z"/>
	<polygon class="st1" points="53.1,2.2 53.1,21.9 36.2,21.9 36.2,23 54.2,23 54.2,22.7 54.2,21.9 54.2,2.2 	"/>
	<polygon class="st1" points="57,2.2 57,25.5 36.2,25.5 36.2,26.5 58.1,26.5 58.1,26.3 58.1,25.5 58.1,2.2 	"/>
	<polygon class="st1" points="60.6,2.2 60.6,29 36.2,29 36.2,30.1 61.7,30.1 61.7,29.8 61.7,29 61.7,2.2 	"/>
	<polygon class="st1" points="64.2,2.2 64.2,32.6 36.2,32.6 36.2,33.7 65.2,33.7 65.2,33.4 65.2,32.6 65.2,2.2 	"/>
	<path class="st1" d="M54.8,1.7c0,0.6-0.5,1.2-1.2,1.2c-0.6,0-1.2-0.5-1.2-1.2c0-0.6,0.5-1.2,1.2-1.2C54.3,0.5,54.8,1,54.8,1.7"/>
	<path class="st2" d="M54.8,1.7c0,0.6-0.5,1.2-1.2,1.2c-0.6,0-1.2-0.5-1.2-1.2c0-0.6,0.5-1.2,1.2-1.2C54.3,0.5,54.8,1,54.8,1.7z"/>
	<path class="st1" d="M58.8,1.7c0,0.6-0.5,1.2-1.2,1.2c-0.6,0-1.2-0.5-1.2-1.2c0-0.6,0.5-1.2,1.2-1.2C58.2,0.5,58.8,1,58.8,1.7"/>
	<path class="st2" d="M58.8,1.7c0,0.6-0.5,1.2-1.2,1.2c-0.6,0-1.2-0.5-1.2-1.2c0-0.6,0.5-1.2,1.2-1.2C58.2,0.5,58.8,1,58.8,1.7z"/>
	<path class="st1" d="M62.3,1.7c0,0.6-0.5,1.2-1.2,1.2c-0.6,0-1.2-0.5-1.2-1.2c0-0.6,0.5-1.2,1.2-1.2C61.8,0.5,62.3,1,62.3,1.7"/>
	<path class="st2" d="M62.3,1.7c0,0.6-0.5,1.2-1.2,1.2c-0.6,0-1.2-0.5-1.2-1.2c0-0.6,0.5-1.2,1.2-1.2C61.8,0.5,62.3,1,62.3,1.7z"/>
	<path class="st1" d="M65.9,1.7c0,0.6-0.5,1.2-1.2,1.2c-0.6,0-1.2-0.5-1.2-1.2c0-0.6,0.5-1.2,1.2-1.2C65.4,0.5,65.9,1,65.9,1.7"/>
	<path class="st2" d="M65.9,1.7c0,0.6-0.5,1.2-1.2,1.2c-0.6,0-1.2-0.5-1.2-1.2c0-0.6,0.5-1.2,1.2-1.2C65.4,0.5,65.9,1,65.9,1.7z"/>
</g>
</svg>
