<svg id="Layer_1" data-name="Layer 1" xmlns="http://www.w3.org/2000/svg" viewBox="0 0 906.91 159.5"><defs><style>.cls-1{fill:#2b3a63;}.cls-2{fill:#ff441a;}</style></defs><path class="cls-1" d="M6.35,154.69l2.31-23.42c5.12,1.81,14.36,1.81,15.18,1.81,8.42,0,11.71-6.43,11.71-14.35V4.89H61.46V118.73c0,21-10.07,38.77-37.62,38.77A71.75,71.75,0,0,1,6.35,154.69Z"/><path class="cls-1" d="M139.48,41.52H163.9v77H139.48v-9.73c-5.28,7.26-14.68,11.71-24.41,11.71-21.62,0-36.79-16.33-36.79-40.42,0-24.25,15.17-40.58,37.12-40.58,9.4,0,18.8,4.12,24.08,11.22Zm-.82,38.6a17.78,17.78,0,0,0-17.82-18c-10.39,0-17.65,8.09-17.65,18A17.63,17.63,0,0,0,121,97.94,17.92,17.92,0,0,0,138.66,80.12Z"/><path class="cls-1" d="M308.4,77.15v41.41H284V77.81c0-11.87-5.94-15.67-12.21-15.67-7.59,0-13.2,5.28-13.2,18.81v37.61H234.16V78.31c0-11.88-5.94-16.17-12-16.17-6.6,0-13.36,3.3-13.36,16.17v40.25H184.34v-77h24.42v15c1.48-11.71,13-17,20.78-17,11.39,0,19.8,5.44,24.42,14.68C259.24,44,271.12,39.54,279.2,39.54,298.5,39.54,308.4,53.56,308.4,77.15Z"/><path class="cls-1" d="M405.22,87.22H348.8c2.31,7.42,8.74,12,18,12a29.23,29.23,0,0,0,19.47-7.92l12.54,15.84c-7.59,8.25-20.79,13.36-33.66,13.36-24.41,0-41.57-16.83-41.57-40.25,0-25.08,19.3-40.75,41.41-40.75s40.58,15.51,40.58,38.93C405.55,80.62,405.39,83.42,405.22,87.22ZM381.3,72.86c-.33-7.59-7.09-12.7-15.84-12.7-7.26,0-14.35,3.47-16.83,12.7Z"/><path class="cls-2" d="M693.28,41.52H717.7v77H693.28v-13.2c-2.64,10.73-15,15.18-22.1,15.18-20.46,0-30.52-13.86-30.52-37.45V41.52h24.41V81.61c0,11.88,7.1,16.33,13.37,16.33,6.43,0,14.84-3.46,14.84-16.33Z"/><path class="cls-2" d="M733.85,93.65H757c0,3.8,2.8,8.25,9.73,8.25,5.12,0,9.41-2.64,9.41-6.27,0-2.47-1.82-3.63-7.59-4.95L758.43,88c-22.6-6.1-23.26-19-23.26-25.41,0-11.38,12.87-23.09,31.51-23.09,14.52,0,32.17,6.76,31.84,26.06H775.43c0-4.94-3.47-7.42-8.25-7.42-4.13,0-7.59,2-7.59,5.28,0,3,2.64,4.62,6.6,5.61l13.36,3.63c19.3,5.28,21,17.49,21,22.77,0,17-17.65,25.07-33.16,25.07C750.18,120.54,733.85,111.14,733.85,93.65Z"/><path class="cls-2" d="M893.7,77.15v41.41H869.29V78.64c0-11.72-7.26-16.5-13.37-16.5-6.6,0-14.84,3.63-14.84,16.5v39.92H816.66V4.61h24.42V53.89c2.8-9.9,15.17-14.35,22.1-14.35C883.64,39.54,893.7,53.56,893.7,77.15Z"/><path class="cls-2" d="M622.8,8.91a2.74,2.74,0,1,0-3.93,2.45V71.79H566.7V66.72h47.09V11.46a2.75,2.75,0,1,0-2.18-.1V64.54H566.7V59.46h39.83v-48a2.75,2.75,0,1,0-2.17-.1V57.29H566.7V52.21h31.85V11.46a2.75,2.75,0,1,0-2.17-.1V50H566.7V5.85H540.8V118.56h25.9V74h30.06v44.69H621V11.46A2.73,2.73,0,0,0,622.8,8.91Z"/><path class="cls-1" d="M416.75,93.65h23.1c0,3.8,2.81,8.25,9.73,8.25,5.12,0,9.41-2.64,9.41-6.27,0-2.47-1.82-3.63-7.59-4.95L441.34,88c-22.61-6.1-23.27-19-23.27-25.41,0-11.38,12.87-23.09,31.51-23.09,14.52,0,32.18,6.76,31.85,26.06h-23.1c0-4.94-3.47-7.42-8.25-7.42-4.12,0-7.59,2-7.59,5.28,0,3,2.64,4.62,6.6,5.61l13.36,3.63C481.76,78,483.4,90.19,483.4,95.47c0,17-17.65,25.07-33.16,25.07C433.09,120.54,416.75,111.14,416.75,93.65Z"/></svg>