<?xml version="1.0" encoding="utf-8"?>
<!-- Generator: Adobe Illustrator 22.0.0, SVG Export Plug-In . SVG Version: 6.00 Build 0)  -->
<svg version="1.1" id="Layer_1" xmlns="http://www.w3.org/2000/svg" xmlns:xlink="http://www.w3.org/1999/xlink" x="0px" y="0px"
	 viewBox="0 0 297.5 52.3" style="enable-background:new 0 0 297.5 52.3;" xml:space="preserve">
<style type="text/css">
	.st0{clip-path:url(#SVGID_2_);fill:#2B3A63;}
	.st1{clip-path:url(#SVGID_2_);fill:#FF441A;}
</style>
<g>
	<defs>
		<rect id="SVGID_1_" y="0" width="297.5" height="52.3"/>
	</defs>
	<clipPath id="SVGID_2_">
		<use xlink:href="#SVGID_1_"  style="overflow:visible;"/>
	</clipPath>
	<path class="st0" d="M0,51.4l0.8-7.8c1.7,0.6,4.8,0.6,5,0.6c2.8,0,3.9-2.1,3.9-4.8V1.8h8.6v37.7c0,6.9-3.3,12.9-12.5,12.9
		C4.8,52.3,2.1,52.1,0,51.4"/>
	<path class="st0" d="M44.1,13.9h8.1v25.5h-8.1v-3.2c-1.8,2.4-4.9,3.9-8.1,3.9c-7.2,0-12.2-5.4-12.2-13.4c0-8,5-13.5,12.3-13.5
		c3.1,0,6.2,1.4,8,3.7V13.9z M43.9,26.7c0-3.3-2.6-6-5.9-6c-3.4,0-5.9,2.7-5.9,6c0,3.1,2.4,5.9,5.9,5.9
		C41.3,32.6,43.9,29.8,43.9,26.7"/>
	<path class="st0" d="M100.1,25.7v13.7h-8.1V25.9c0-3.9-2-5.2-4-5.2c-2.5,0-4.4,1.8-4.4,6.2v12.5h-8.1V26.1c0-3.9-2-5.4-4-5.4
		c-2.2,0-4.4,1.1-4.4,5.4v13.3H59V13.9h8.1v5c0.5-3.9,4.3-5.6,6.9-5.6c3.8,0,6.6,1.8,8.1,4.9c1.8-3.4,5.7-4.9,8.4-4.9
		C96.9,13.2,100.1,17.9,100.1,25.7"/>
	<path class="st0" d="M132.2,29h-18.7c0.8,2.5,2.9,4,6,4c2.4,0,4.9-1.1,6.5-2.6l4.2,5.3c-2.5,2.7-6.9,4.4-11.2,4.4
		c-8.1,0-13.8-5.6-13.8-13.3c0-8.3,6.4-13.5,13.7-13.5c7.3,0,13.5,5.1,13.5,12.9C132.4,26.9,132.3,27.8,132.2,29 M124.3,24.3
		c-0.1-2.5-2.4-4.2-5.3-4.2c-2.4,0-4.8,1.1-5.6,4.2H124.3z"/>
	<rect x="177.2" y="2.7" class="st1" width="8.6" height="36.8"/>
	<rect x="177.2" y="1.7" class="st1" width="8.6" height="14.8"/>
	<path class="st1" d="M231.1,13.9h8.1v25.5h-8.1v-4.4c-0.9,3.6-5,5-7.3,5c-6.8,0-10.1-4.6-10.1-12.4V13.9h8.1v13.3
		c0,3.9,2.4,5.4,4.4,5.4c2.1,0,4.9-1.1,4.9-5.4V13.9z"/>
	<path class="st1" d="M244.5,31.2h7.7c0,1.3,0.9,2.7,3.2,2.7c1.7,0,3.1-0.9,3.1-2.1c0-0.8-0.6-1.2-2.5-1.6l-3.3-0.9
		c-7.5-2-7.7-6.3-7.7-8.4c0-3.8,4.3-7.7,10.4-7.7c4.8,0,10.7,2.2,10.6,8.6h-7.7c0-1.6-1.1-2.5-2.7-2.5c-1.4,0-2.5,0.7-2.5,1.8
		c0,1,0.9,1.5,2.2,1.9l4.4,1.2c6.4,1.8,6.9,5.8,6.9,7.5c0,5.6-5.9,8.3-11,8.3C249.9,40.1,244.5,37,244.5,31.2"/>
	<path class="st1" d="M297.5,25.7v13.7h-8.1V26.2c0-3.9-2.4-5.5-4.4-5.5c-2.2,0-4.9,1.2-4.9,5.5v13.2H272V0h8.1v18
		c0.9-3.3,5-4.8,7.3-4.8C294.2,13.2,297.5,17.9,297.5,25.7"/>
	<polygon class="st1" points="195.6,3.4 195.6,16.7 181.5,16.7 181.5,17.4 196.3,17.4 196.3,17.3 196.3,16.7 196.3,3.4 	"/>
	<polygon class="st1" points="198.3,3.4 198.3,19.1 181.5,19.1 181.5,19.8 199,19.8 199,19.7 199,19.1 199,3.4 	"/>
	<polygon class="st1" points="200.7,3.4 200.7,21.5 181.5,21.5 181.5,22.2 201.4,22.2 201.4,22.1 201.4,21.5 201.4,3.4 	"/>
	<polygon class="st1" points="203.1,3.4 203.1,23.9 181.5,23.9 181.5,24.7 203.8,24.7 203.8,24.5 203.8,23.9 203.8,3.4 	"/>
	<polyline class="st1" points="203.8,24.3 203.8,39.1 195.8,39.1 195.8,24.3 	"/>
	<path class="st1" d="M196.8,3.1c0,0.4-0.4,0.8-0.8,0.8c-0.4,0-0.8-0.4-0.8-0.8c0-0.4,0.4-0.8,0.8-0.8
		C196.5,2.3,196.8,2.6,196.8,3.1"/>
	<path class="st1" d="M199.5,3.1c0,0.4-0.4,0.8-0.8,0.8c-0.4,0-0.8-0.4-0.8-0.8c0-0.4,0.4-0.8,0.8-0.8
		C199.1,2.3,199.5,2.6,199.5,3.1"/>
	<path class="st1" d="M201.9,3.1c0,0.4-0.4,0.8-0.8,0.8c-0.4,0-0.8-0.4-0.8-0.8c0-0.4,0.4-0.8,0.8-0.8
		C201.5,2.3,201.9,2.6,201.9,3.1"/>
	<path class="st1" d="M204.3,3.1c0,0.4-0.4,0.8-0.8,0.8c-0.4,0-0.8-0.4-0.8-0.8c0-0.4,0.4-0.8,0.8-0.8
		C203.9,2.3,204.3,2.6,204.3,3.1"/>
	<path class="st0" d="M136.1,31.2h7.7c0,1.3,0.9,2.7,3.2,2.7c1.7,0,3.1-0.9,3.1-2.1c0-0.8-0.6-1.2-2.5-1.6l-3.3-0.9
		c-7.5-2-7.7-6.3-7.7-8.4c0-3.8,4.3-7.7,10.4-7.7c4.8,0,10.7,2.2,10.6,8.6h-7.7c0-1.6-1.1-2.5-2.7-2.5c-1.4,0-2.5,0.7-2.5,1.8
		c0,1,0.9,1.5,2.2,1.9l4.4,1.2c6.4,1.8,6.9,5.8,6.9,7.5c0,5.6-5.9,8.3-11,8.3C141.5,40.1,136.1,37,136.1,31.2"/>
</g>
</svg>
